<?xml version="1.0" encoding="UTF-8" standalone="no"?><!DOCTYPE svg PUBLIC "-//W3C//DTD SVG 1.1//EN" "http://www.w3.org/Graphics/SVG/1.1/DTD/svg11.dtd"><svg width="100%" height="100%" viewBox="0 0 557 369" version="1.1" xmlns="http://www.w3.org/2000/svg" xmlns:xlink="http://www.w3.org/1999/xlink" xml:space="preserve" xmlns:serif="http://www.serif.com/" style="fill-rule:evenodd;clip-rule:evenodd;stroke-linejoin:round;stroke-miterlimit:2;"><path d="M64.346,248.532c36.111,0 63.846,-26.804 63.846,-62.729c0,-35.925 -27.735,-62.729 -63.846,-62.729c-36.111,0 -63.846,26.804 -63.846,62.729c0,35.925 27.735,62.729 63.846,62.729Zm0,-12.285c-28.479,0 -50.072,-21.034 -50.072,-50.444c0,-29.41 21.593,-50.444 50.072,-50.444c28.479,0 50.071,21.034 50.071,50.444c0,29.41 -21.592,50.444 -50.071,50.444Z" style="fill:url(#_Linear1);fill-rule:nonzero;stroke:#fff;stroke-width:1px;"/><path d="M268.727,182.266l-0.931,-1.117l-59.937,0l0,11.913l47.28,0c0,22.337 -20.662,43.185 -47.652,43.185c-26.99,0 -48.582,-21.034 -48.582,-50.444c0,-29.41 21.592,-50.444 49.141,-50.444c16.38,0 30.713,7.446 39.647,19.731l0.931,0l9.121,-7.632l0,-0.931c-11.355,-14.705 -29.224,-23.453 -49.513,-23.453c-35.367,0 -63.102,26.804 -63.102,62.729c0,35.925 27.735,62.729 62.729,62.729c35.553,0 61.24,-27.549 61.24,-60.868c0,-2.047 0,-3.35 -0.372,-5.398Z" style="fill:url(#_Linear2);fill-rule:nonzero;stroke:#fff;stroke-width:1px;"/><path d="M387.112,248.532c36.111,0 63.846,-26.804 63.846,-62.729c0,-35.925 -27.735,-62.729 -63.846,-62.729c-36.111,0 -63.846,26.804 -63.846,62.729c0,35.925 27.735,62.729 63.846,62.729Zm0,-12.285c-28.48,0 -50.072,-21.034 -50.072,-50.444c0,-29.41 21.592,-50.444 50.072,-50.444c28.479,0 50.071,21.034 50.071,50.444c0,29.41 -21.592,50.444 -50.071,50.444Z" style="fill:url(#_Linear3);fill-rule:nonzero;stroke:#fff;stroke-width:1px;"/><path d="M507.916,137.22l0,109.078l-13.402,0l0,-109.078l-39.275,0l0,-11.913l91.953,0l0,11.913l-39.276,0Z" style="fill:url(#_Linear4);fill-rule:nonzero;stroke:#fff;stroke-width:1px;"/><g><path d="M23.498,270.524c-5.541,0 -9,2.208 -10.875,4.083c-2.5,2.5 -4.291,6.542 -4.291,10.542c0,4.083 1.666,7.833 4.333,10.333c2.083,2 5.625,4.083 10.833,4.083c4.667,0 8.167,-1.583 10.75,-4.083c3,-2.917 4.334,-6.708 4.334,-10.417c0,-4.291 -1.709,-7.958 -4.334,-10.5c-2.791,-2.708 -6.416,-4.041 -10.75,-4.041Zm-0.041,5.916c2.541,0 4.75,1.042 6.125,2.375c1.25,1.25 2.416,3.375 2.416,6.25c0,3.209 -1.333,5.167 -2.416,6.209c-1.334,1.333 -3.334,2.375 -6.167,2.375c-2.167,0 -4.167,-0.584 -5.958,-2.292c-1.709,-1.667 -2.542,-3.708 -2.542,-6.25c0,-3.083 1.25,-5.125 2.458,-6.292c1.5,-1.5 3.667,-2.375 6.084,-2.375Z" style="fill:url(#_Linear5);fill-rule:nonzero;stroke:#fff;stroke-width:1px;"/><path d="M47.915,298.94l0,-19.416l20.167,21.125l0,-29.5l-4.25,0l0,19.25l-20.167,-21.125l0,29.666l4.25,0Z" style="fill:url(#_Linear6);fill-rule:nonzero;stroke:#fff;stroke-width:1px;"/><path d="M74.748,271.149l0,27.791l12.417,0l0,-4l-8.167,0l0,-23.791l-4.25,0Z" style="fill:url(#_Linear7);fill-rule:nonzero;stroke:#fff;stroke-width:1px;"/><rect x="91.165" y="271.149" width="4.25" height="27.792" style="fill:url(#_Linear8);fill-rule:nonzero;stroke:#fff;stroke-width:1px;"/><path d="M106.332,298.94l0,-19.416l20.166,21.125l0,-29.5l-4.25,0l0,19.25l-20.166,-21.125l0,29.666l4.25,0Z" style="fill:url(#_Linear9);fill-rule:nonzero;stroke:#fff;stroke-width:1px;"/><path d="M148.498,271.149l-15.333,0l0,27.791l15.333,0l0,-4l-11.083,0l0,-8.75l10.75,0l0,-4l-10.75,0l0,-7.041l11.083,0l0,-4Z" style="fill:url(#_Linear10);fill-rule:nonzero;stroke:#fff;stroke-width:1px;"/><path d="M22.998,330.607l6.709,0c-0.542,2.042 -1.792,3.125 -2,3.292c-0.625,0.541 -2.084,1.5 -4.834,1.5c-2.125,0 -4,-0.5 -5.625,-2.167c-1.166,-1.167 -2.333,-3.208 -2.333,-6.375c0,-2.583 0.833,-4.958 2.375,-6.583c1.333,-1.417 3.208,-2.25 5.75,-2.25c1.583,0 3,0.416 4.25,1.333c1.083,0.792 1.917,1.917 2.458,3l5.792,-3.125c-1,-1.75 -2.625,-3.708 -4.5,-4.958c-2.583,-1.709 -5.5,-2.084 -7.792,-2.084c-3.291,0 -7.5,0.5 -10.916,4.042c-2.334,2.375 -4,6 -4,10.542c0,5.541 2.458,8.916 4.083,10.583c3.25,3.333 6.833,3.875 10.167,3.875c3.291,0 6.833,-0.583 9.916,-3.792c3.084,-3.208 4.292,-8.333 4.292,-11.708l0,-0.292l-13.792,0l0,5.167Z" style="fill:url(#_Linear11);fill-rule:nonzero;stroke:#fff;stroke-width:1px;"/><path d="M57.207,312.815l-15.334,0l0,27.792l15.334,0l0,-4l-11.084,0l0,-8.75l10.75,0l0,-4l-10.75,0l0,-7.042l11.084,0l0,-4Z" style="fill:url(#_Linear12);fill-rule:nonzero;stroke:#fff;stroke-width:1px;"/><path d="M62.707,312.815l0,27.792l5.75,0c3.875,0 6.916,-0.375 10.166,-2.667c3.667,-2.583 5.584,-6.583 5.584,-11.208c0,-4.625 -1.959,-8.667 -5.334,-11.208c-3.083,-2.292 -6.458,-2.709 -10.333,-2.709l-5.833,0Zm4.25,4l1.833,0c2.042,0 5,0.167 7.417,1.917c2,1.458 3.75,4.333 3.75,8c0,3.792 -1.875,6.458 -3.792,7.917c-2.417,1.791 -5.292,1.958 -7.375,1.958l-1.833,0l0,-19.792Z" style="fill:url(#_Linear13);fill-rule:nonzero;stroke:#fff;stroke-width:1px;"/><path d="M104.873,312.815l-15.333,0l0,27.792l15.333,0l0,-4l-11.083,0l0,-8.75l10.75,0l0,-4l-10.75,0l0,-7.042l11.083,0l0,-4Z" style="fill:url(#_Linear14);fill-rule:nonzero;stroke:#fff;stroke-width:1px;"/><path d="M114.623,340.607l0,-19.417l20.167,21.125l0,-29.5l-4.25,0l0,19.25l-20.167,-21.125l0,29.667l4.25,0Z" style="fill:url(#_Linear15);fill-rule:nonzero;stroke:#fff;stroke-width:1px;"/><path d="M145.707,312.815l-4.25,0l0,27.792l4.25,0l0,-11.5l0.833,-0.833l9.917,12.333l5.666,0l-12.625,-15.208l12.542,-12.584l-5.583,0l-10.75,11.084l0,-11.084Z" style="fill:url(#_Linear16);fill-rule:nonzero;stroke:#fff;stroke-width:1px;"/><path d="M179.79,312.815l-13.917,0l0,27.792l4.25,0l0,-12.75l9.334,0l0,-4l-9.334,0l0,-7.042l9.667,0l0,-4Z" style="fill:url(#_Linear17);fill-rule:nonzero;stroke:#fff;stroke-width:1px;"/><path d="M199.957,312.815l-15.334,0l0,27.792l15.334,0l0,-4l-11.084,0l0,-8.75l10.75,0l0,-4l-10.75,0l0,-7.042l11.084,0l0,-4Z" style="fill:url(#_Linear18);fill-rule:nonzero;stroke:#fff;stroke-width:1px;"/><rect x="205.457" y="312.815" width="4.25" height="27.792" style="fill:url(#_Linear19);fill-rule:nonzero;stroke:#fff;stroke-width:1px;"/><path d="M231.707,312.815l-15.334,0l0,27.792l15.334,0l0,-4l-11.084,0l0,-8.75l10.75,0l0,-4l-10.75,0l0,-7.042l11.084,0l0,-4Z" style="fill:url(#_Linear20);fill-rule:nonzero;stroke:#fff;stroke-width:1px;"/><path d="M237.207,312.815l0,27.792l4.25,0l0,-11.375l0.75,0l7.958,11.375l5.125,0l-8.667,-11.875c3.709,-0.833 6.167,-3.75 6.167,-7.75c0,-1.208 -0.25,-4.5 -3.292,-6.542c-1.791,-1.208 -3.958,-1.625 -7.333,-1.625l-4.958,0Zm4.25,3.917l1.458,0c2.083,0 5.792,0.375 5.792,4.292c0,4.416 -4.75,4.541 -5.917,4.541l-1.333,0l0,-8.833Z" style="fill:url(#_Linear21);fill-rule:nonzero;stroke:#fff;stroke-width:1px;"/></g><g><path d="M333.867,270.524c-5.542,0 -9,2.208 -10.875,4.083c-2.5,2.5 -4.292,6.542 -4.292,10.542c0,4.083 1.667,7.833 4.333,10.333c2.084,2 5.625,4.083 10.834,4.083c4.666,0 8.166,-1.583 10.75,-4.083c3,-2.917 4.333,-6.708 4.333,-10.417c0,-4.291 -1.708,-7.958 -4.333,-10.5c-2.792,-2.708 -6.417,-4.041 -10.75,-4.041Zm-0.042,5.916c2.542,0 4.75,1.042 6.125,2.375c1.25,1.25 2.417,3.375 2.417,6.25c0,3.209 -1.334,5.167 -2.417,6.209c-1.333,1.333 -3.333,2.375 -6.167,2.375c-2.166,0 -4.166,-0.584 -5.958,-2.292c-1.708,-1.667 -2.542,-3.708 -2.542,-6.25c0,-3.083 1.25,-5.125 2.459,-6.292c1.5,-1.5 3.666,-2.375 6.083,-2.375Z" style="fill:url(#_Linear22);fill-rule:nonzero;stroke:#fff;stroke-width:1px;"/><path d="M358.075,298.94l0,-19.416l20.167,21.125l0,-29.5l-4.25,0l0,19.25l-20.167,-21.125l0,29.666l4.25,0Z" style="fill:url(#_Linear23);fill-rule:nonzero;stroke:#fff;stroke-width:1px;"/><path d="M384.7,271.149l0,27.791l12.417,0l0,-4l-8.167,0l0,-23.791l-4.25,0Z" style="fill:url(#_Linear24);fill-rule:nonzero;stroke:#fff;stroke-width:1px;"/><rect x="400.908" y="271.149" width="4.25" height="27.792" style="fill:url(#_Linear25);fill-rule:nonzero;stroke:#fff;stroke-width:1px;"/><path d="M415.867,298.94l0,-19.416l20.166,21.125l0,-29.5l-4.25,0l0,19.25l-20.166,-21.125l0,29.666l4.25,0Z" style="fill:url(#_Linear26);fill-rule:nonzero;stroke:#fff;stroke-width:1px;"/><path d="M457.825,271.149l-15.333,0l0,27.791l15.333,0l0,-4l-11.083,0l0,-8.75l10.75,0l0,-4l-10.75,0l0,-7.041l11.083,0l0,-4Z" style="fill:url(#_Linear27);fill-rule:nonzero;stroke:#fff;stroke-width:1px;"/></g><path d="M341.783,318.384l0,-5.417l-18.5,0l0,5.417l6.042,0l0,22.375l6.416,0l0,-22.375l6.042,0Z" style="fill:url(#_Linear28);fill-rule:nonzero;stroke:#fff;stroke-width:1px;"/><g><path d="M347.031,312.967l0,27.792l4.25,0l0,-11.375l0.75,0l7.958,11.375l5.125,0l-8.667,-11.875c3.709,-0.833 6.167,-3.75 6.167,-7.75c0,-1.208 -0.25,-4.5 -3.292,-6.542c-1.791,-1.208 -3.958,-1.625 -7.333,-1.625l-4.958,0Zm4.25,3.917l1.458,0c2.083,0 5.792,0.375 5.792,4.292c0,4.416 -4.75,4.541 -5.917,4.541l-1.333,0l0,-8.833Z" style="fill:url(#_Linear29);fill-rule:nonzero;stroke:#fff;stroke-width:1px;"/><path d="M388.531,340.759l4.583,0l-13.167,-29.417l-13.833,29.417l4.583,0l3.042,-6.708l11.875,0l2.917,6.708Zm-13.042,-10.708l4.292,-9.417l4.125,9.417l-8.417,0Z" style="fill:url(#_Linear30);fill-rule:nonzero;stroke:#fff;stroke-width:1px;"/><path d="M396.614,312.967l0,17.875c0,2.209 0.458,4.875 2.583,7.209c1.459,1.583 3.917,3.25 7.709,3.25c3.791,0 6.25,-1.667 7.708,-3.25c2.125,-2.334 2.583,-5 2.583,-7.209l0,-17.875l-4.25,0l0,16.75c0,1.5 -0.041,3.334 -0.875,4.792c-0.833,1.417 -2.708,2.875 -5.166,2.875c-2.459,0 -4.334,-1.458 -5.167,-2.875c-0.833,-1.458 -0.875,-3.292 -0.875,-4.792l0,-16.75l-4.25,0Z" style="fill:url(#_Linear31);fill-rule:nonzero;stroke:#fff;stroke-width:1px;"/><path d="M439.197,312.967l-15.333,0l0,27.792l15.333,0l0,-4l-11.083,0l0,-8.75l10.75,0l0,-4l-10.75,0l0,-7.042l11.083,0l0,-4Z" style="fill:url(#_Linear32);fill-rule:nonzero;stroke:#fff;stroke-width:1px;"/><path d="M444.697,312.967l0,27.792l4.25,0l0,-11.375l0.75,0l7.959,11.375l5.125,0l-8.667,-11.875c3.708,-0.833 6.167,-3.75 6.167,-7.75c0,-1.208 -0.25,-4.5 -3.292,-6.542c-1.792,-1.208 -3.958,-1.625 -7.333,-1.625l-4.959,0Zm4.25,3.917l1.459,0c2.083,0 5.791,0.375 5.791,4.292c0,4.416 -4.75,4.541 -5.916,4.541l-1.334,0l0,-8.833Z" style="fill:url(#_Linear33);fill-rule:nonzero;stroke:#fff;stroke-width:1px;"/><path d="M480.864,312.967l-13.917,0l0,27.792l4.25,0l0,-12.75l9.334,0l0,-4l-9.334,0l0,-7.042l9.667,0l0,-4Z" style="fill:url(#_Linear34);fill-rule:nonzero;stroke:#fff;stroke-width:1px;"/><path d="M501.031,312.967l-15.334,0l0,27.792l15.334,0l0,-4l-11.084,0l0,-8.75l10.75,0l0,-4l-10.75,0l0,-7.042l11.084,0l0,-4Z" style="fill:url(#_Linear35);fill-rule:nonzero;stroke:#fff;stroke-width:1px;"/><rect x="506.531" y="312.967" width="4.25" height="27.792" style="fill:url(#_Linear36);fill-rule:nonzero;stroke:#fff;stroke-width:1px;"/><path d="M532.781,312.967l-15.334,0l0,27.792l15.334,0l0,-4l-11.084,0l0,-8.75l10.75,0l0,-4l-10.75,0l0,-7.042l11.084,0l0,-4Z" style="fill:url(#_Linear37);fill-rule:nonzero;stroke:#fff;stroke-width:1px;"/><path d="M538.281,312.967l0,27.792l4.25,0l0,-11.375l0.75,0l7.958,11.375l5.125,0l-8.667,-11.875c3.709,-0.833 6.167,-3.75 6.167,-7.75c0,-1.208 -0.25,-4.5 -3.292,-6.542c-1.791,-1.208 -3.958,-1.625 -7.333,-1.625l-4.958,0Zm4.25,3.917l1.458,0c2.083,0 5.792,0.375 5.792,4.292c0,4.416 -4.75,4.541 -5.917,4.541l-1.333,0l0,-8.833Z" style="fill:url(#_Linear38);fill-rule:nonzero;stroke:#fff;stroke-width:1px;"/></g><path d="M292.119,85.556c-1.96,-0.59 -3.784,-1.496 -5.41,-2.66l0.275,0.276l-18.213,18.182c2.809,4.793 2.156,11.06 -1.957,15.166c-4.882,4.874 -12.803,4.867 -17.677,-0.015c-4.874,-4.883 -4.868,-12.804 0.015,-17.678c4.112,-4.105 10.381,-4.748 15.169,-1.931l18.187,-18.156c-1.647,-2.254 -2.798,-4.894 -3.289,-7.758l-25.439,-0.009c-1.4,5.377 -6.291,9.349 -12.102,9.347c-6.899,-0.002 -12.499,-5.605 -12.496,-12.504c0.002,-6.899 5.605,-12.498 12.504,-12.496c5.811,0.002 10.7,3.977 12.096,9.354l25.439,0.009c0.476,-2.764 1.566,-5.32 3.126,-7.521l-17.995,-18.003c-4.792,2.812 -11.059,2.163 -15.167,-1.947c-4.877,-4.88 -4.876,-12.801 0.004,-17.678c4.879,-4.877 12.8,-4.875 17.677,0.004c4.108,4.11 4.755,10.378 1.941,15.168l17.998,18.006c2.196,-1.549 4.743,-2.633 7.498,-3.106l0,-25.007c-5.376,-1.398 -9.35,-6.288 -9.35,-12.099c0,-6.899 5.601,-12.5 12.5,-12.5c6.899,0 12.5,5.601 12.5,12.5c0,5.811 -3.974,10.701 -9.351,12.099l0,25.007c2.873,0.493 5.52,1.65 7.778,3.307l17.755,-17.725c-2.809,-4.793 -2.156,-11.06 1.956,-15.166c4.883,-4.874 12.804,-4.867 17.678,0.015c4.874,4.883 4.867,12.804 -0.015,17.678c-4.113,4.106 -10.381,4.748 -15.169,1.931l-17.829,17.799c1.456,2.139 2.476,4.599 2.93,7.25l25.44,0.008c1.4,-5.376 6.291,-9.348 12.102,-9.346c6.899,0.002 12.498,5.605 12.496,12.504c-0.002,6.899 -5.605,12.498 -12.504,12.496c-5.811,-0.002 -10.7,-3.978 -12.096,-9.355l-25.44,-0.008c-0.474,2.755 -1.559,5.303 -3.11,7.499l17.98,17.988c4.791,-2.812 11.059,-2.163 15.167,1.947c4.877,4.879 4.875,12.801 -0.004,17.678c-4.879,4.877 -12.801,4.875 -17.678,-0.004c-4.108,-4.11 -4.754,-10.378 -1.94,-15.168l-17.977,-17.985c-1.608,1.138 -3.405,2.026 -5.335,2.607l0,282.933l-10.668,0l0,-282.933Zm-39.267,27.24c2.827,2.831 7.421,2.835 10.253,0.008c2.832,-2.827 2.836,-7.421 0.009,-10.253c-2.827,-2.831 -7.421,-2.835 -10.253,-0.008c-2.832,2.827 -2.836,7.421 -0.009,10.253Zm89.153,-0.403c-2.83,2.828 -7.424,2.827 -10.253,-0.003c-2.828,-2.83 -2.827,-7.424 0.003,-10.253c2.83,-2.828 7.424,-2.827 10.253,0.003c2.828,2.83 2.827,7.424 -0.003,10.253Zm-44.552,-54.372c5.657,0 10.25,4.593 10.25,10.25c0,5.657 -4.593,10.25 -10.25,10.25c-5.657,0 -10.25,-4.593 -10.25,-10.25c0,-5.657 4.593,-10.25 10.25,-10.25Zm63.021,9.838c-0.001,4.001 -3.251,7.249 -7.252,7.248c-4.002,-0.002 -7.249,-3.251 -7.248,-7.253c0.001,-4.001 3.251,-7.249 7.252,-7.247c4.002,0.001 7.249,3.251 7.248,7.252Zm-126.042,-0.041c-0.002,4.001 3.246,7.251 7.247,7.252c4.002,0.001 7.251,-3.246 7.253,-7.248c0.001,-4.001 -3.246,-7.251 -7.248,-7.252c-4.001,-0.001 -7.251,3.246 -7.252,7.248Zm107.622,-44.071c2.827,2.831 2.823,7.426 -0.009,10.253c-2.832,2.827 -7.426,2.823 -10.253,-0.009c-2.827,-2.832 -2.823,-7.426 0.008,-10.253c2.832,-2.827 7.427,-2.823 10.254,0.009Zm-89.154,-0.5c-2.83,2.829 -2.831,7.423 -0.002,10.253c2.829,2.83 7.423,2.831 10.253,0.003c2.83,-2.829 2.831,-7.423 0.002,-10.253c-2.828,-2.83 -7.423,-2.832 -10.253,-0.003Zm44.553,-17.997c4.001,0 7.25,3.249 7.25,7.25c0,4.001 -3.249,7.25 -7.25,7.25c-4.002,0 -7.25,-3.249 -7.25,-7.25c0,-4.001 3.248,-7.25 7.25,-7.25Z" style="fill:url(#_Linear39);"/><defs><linearGradient id="_Linear1" x1="0" y1="0" x2="1" y2="0" gradientUnits="userSpaceOnUse" gradientTransform="matrix(-396.421,4.85476e-14,-4.85476e-14,-396.421,414.169,284.961)"><stop offset="0" style="stop-color:#adb6f2;stop-opacity:1"/><stop offset="1" style="stop-color:#962b56;stop-opacity:1"/></linearGradient><linearGradient id="_Linear2" x1="0" y1="0" x2="1" y2="0" gradientUnits="userSpaceOnUse" gradientTransform="matrix(-508.915,364.443,-364.443,-508.915,527.938,5.25)"><stop offset="0" style="stop-color:#adb6f2;stop-opacity:1"/><stop offset="1" style="stop-color:#962b56;stop-opacity:1"/></linearGradient><linearGradient id="_Linear3" x1="0" y1="0" x2="1" y2="0" gradientUnits="userSpaceOnUse" gradientTransform="matrix(-508.915,364.443,-364.443,-508.915,527.938,5.25)"><stop offset="0" style="stop-color:#adb6f2;stop-opacity:1"/><stop offset="1" style="stop-color:#962b56;stop-opacity:1"/></linearGradient><linearGradient id="_Linear4" x1="0" y1="0" x2="1" y2="0" gradientUnits="userSpaceOnUse" gradientTransform="matrix(-508.915,364.443,-364.443,-508.915,527.938,5.25)"><stop offset="0" style="stop-color:#adb6f2;stop-opacity:1"/><stop offset="1" style="stop-color:#962b56;stop-opacity:1"/></linearGradient><linearGradient id="_Linear5" x1="0" y1="0" x2="1" y2="0" gradientUnits="userSpaceOnUse" gradientTransform="matrix(-508.915,364.443,-364.443,-508.915,527.938,5.25)"><stop offset="0" style="stop-color:#adb6f2;stop-opacity:1"/><stop offset="1" style="stop-color:#962b56;stop-opacity:1"/></linearGradient><linearGradient id="_Linear6" x1="0" y1="0" x2="1" y2="0" gradientUnits="userSpaceOnUse" gradientTransform="matrix(-508.915,364.443,-364.443,-508.915,527.938,5.25)"><stop offset="0" style="stop-color:#adb6f2;stop-opacity:1"/><stop offset="1" style="stop-color:#962b56;stop-opacity:1"/></linearGradient><linearGradient id="_Linear7" x1="0" y1="0" x2="1" y2="0" gradientUnits="userSpaceOnUse" gradientTransform="matrix(-508.915,364.443,-364.443,-508.915,527.938,5.25)"><stop offset="0" style="stop-color:#adb6f2;stop-opacity:1"/><stop offset="1" style="stop-color:#962b56;stop-opacity:1"/></linearGradient><linearGradient id="_Linear8" x1="0" y1="0" x2="1" y2="0" gradientUnits="userSpaceOnUse" gradientTransform="matrix(-508.915,364.443,-364.443,-508.915,527.938,5.25)"><stop offset="0" style="stop-color:#adb6f2;stop-opacity:1"/><stop offset="1" style="stop-color:#962b56;stop-opacity:1"/></linearGradient><linearGradient id="_Linear9" x1="0" y1="0" x2="1" y2="0" gradientUnits="userSpaceOnUse" gradientTransform="matrix(-508.915,364.443,-364.443,-508.915,527.938,5.25)"><stop offset="0" style="stop-color:#adb6f2;stop-opacity:1"/><stop offset="1" style="stop-color:#962b56;stop-opacity:1"/></linearGradient><linearGradient id="_Linear10" x1="0" y1="0" x2="1" y2="0" gradientUnits="userSpaceOnUse" gradientTransform="matrix(-508.915,364.443,-364.443,-508.915,527.938,5.25)"><stop offset="0" style="stop-color:#adb6f2;stop-opacity:1"/><stop offset="1" style="stop-color:#962b56;stop-opacity:1"/></linearGradient><linearGradient id="_Linear11" x1="0" y1="0" x2="1" y2="0" gradientUnits="userSpaceOnUse" gradientTransform="matrix(-508.915,364.443,-364.443,-508.915,527.938,5.25)"><stop offset="0" style="stop-color:#adb6f2;stop-opacity:1"/><stop offset="1" style="stop-color:#962b56;stop-opacity:1"/></linearGradient><linearGradient id="_Linear12" x1="0" y1="0" x2="1" y2="0" gradientUnits="userSpaceOnUse" gradientTransform="matrix(-508.915,364.443,-364.443,-508.915,527.938,5.25)"><stop offset="0" style="stop-color:#adb6f2;stop-opacity:1"/><stop offset="1" style="stop-color:#962b56;stop-opacity:1"/></linearGradient><linearGradient id="_Linear13" x1="0" y1="0" x2="1" y2="0" gradientUnits="userSpaceOnUse" gradientTransform="matrix(-508.915,364.443,-364.443,-508.915,527.938,5.25)"><stop offset="0" style="stop-color:#adb6f2;stop-opacity:1"/><stop offset="1" style="stop-color:#962b56;stop-opacity:1"/></linearGradient><linearGradient id="_Linear14" x1="0" y1="0" x2="1" y2="0" gradientUnits="userSpaceOnUse" gradientTransform="matrix(-508.915,364.443,-364.443,-508.915,527.938,5.25)"><stop offset="0" style="stop-color:#adb6f2;stop-opacity:1"/><stop offset="1" style="stop-color:#962b56;stop-opacity:1"/></linearGradient><linearGradient id="_Linear15" x1="0" y1="0" x2="1" y2="0" gradientUnits="userSpaceOnUse" gradientTransform="matrix(-508.915,364.443,-364.443,-508.915,527.938,5.25)"><stop offset="0" style="stop-color:#adb6f2;stop-opacity:1"/><stop offset="1" style="stop-color:#962b56;stop-opacity:1"/></linearGradient><linearGradient id="_Linear16" x1="0" y1="0" x2="1" y2="0" gradientUnits="userSpaceOnUse" gradientTransform="matrix(-508.915,364.443,-364.443,-508.915,527.938,5.25)"><stop offset="0" style="stop-color:#adb6f2;stop-opacity:1"/><stop offset="1" style="stop-color:#962b56;stop-opacity:1"/></linearGradient><linearGradient id="_Linear17" x1="0" y1="0" x2="1" y2="0" gradientUnits="userSpaceOnUse" gradientTransform="matrix(-508.915,364.443,-364.443,-508.915,527.938,5.25)"><stop offset="0" style="stop-color:#adb6f2;stop-opacity:1"/><stop offset="1" style="stop-color:#962b56;stop-opacity:1"/></linearGradient><linearGradient id="_Linear18" x1="0" y1="0" x2="1" y2="0" gradientUnits="userSpaceOnUse" gradientTransform="matrix(-508.915,364.443,-364.443,-508.915,527.938,5.25)"><stop offset="0" style="stop-color:#adb6f2;stop-opacity:1"/><stop offset="1" style="stop-color:#962b56;stop-opacity:1"/></linearGradient><linearGradient id="_Linear19" x1="0" y1="0" x2="1" y2="0" gradientUnits="userSpaceOnUse" gradientTransform="matrix(-508.915,364.443,-364.443,-508.915,527.938,5.25)"><stop offset="0" style="stop-color:#adb6f2;stop-opacity:1"/><stop offset="1" style="stop-color:#962b56;stop-opacity:1"/></linearGradient><linearGradient id="_Linear20" x1="0" y1="0" x2="1" y2="0" gradientUnits="userSpaceOnUse" gradientTransform="matrix(-508.915,364.443,-364.443,-508.915,527.938,5.25)"><stop offset="0" style="stop-color:#adb6f2;stop-opacity:1"/><stop offset="1" style="stop-color:#962b56;stop-opacity:1"/></linearGradient><linearGradient id="_Linear21" x1="0" y1="0" x2="1" y2="0" gradientUnits="userSpaceOnUse" gradientTransform="matrix(-508.915,364.443,-364.443,-508.915,527.938,5.25)"><stop offset="0" style="stop-color:#adb6f2;stop-opacity:1"/><stop offset="1" style="stop-color:#962b56;stop-opacity:1"/></linearGradient><linearGradient id="_Linear22" x1="0" y1="0" x2="1" y2="0" gradientUnits="userSpaceOnUse" gradientTransform="matrix(-508.915,364.443,-364.443,-508.915,530.938,5.25)"><stop offset="0" style="stop-color:#adb6f2;stop-opacity:1"/><stop offset="1" style="stop-color:#962b56;stop-opacity:1"/></linearGradient><linearGradient id="_Linear23" x1="0" y1="0" x2="1" y2="0" gradientUnits="userSpaceOnUse" gradientTransform="matrix(-508.915,364.443,-364.443,-508.915,530.938,5.25)"><stop offset="0" style="stop-color:#adb6f2;stop-opacity:1"/><stop offset="1" style="stop-color:#962b56;stop-opacity:1"/></linearGradient><linearGradient id="_Linear24" x1="0" y1="0" x2="1" y2="0" gradientUnits="userSpaceOnUse" gradientTransform="matrix(-508.915,364.443,-364.443,-508.915,530.938,5.25)"><stop offset="0" style="stop-color:#adb6f2;stop-opacity:1"/><stop offset="1" style="stop-color:#962b56;stop-opacity:1"/></linearGradient><linearGradient id="_Linear25" x1="0" y1="0" x2="1" y2="0" gradientUnits="userSpaceOnUse" gradientTransform="matrix(-508.915,364.443,-364.443,-508.915,530.938,5.25)"><stop offset="0" style="stop-color:#adb6f2;stop-opacity:1"/><stop offset="1" style="stop-color:#962b56;stop-opacity:1"/></linearGradient><linearGradient id="_Linear26" x1="0" y1="0" x2="1" y2="0" gradientUnits="userSpaceOnUse" gradientTransform="matrix(-508.915,364.443,-364.443,-508.915,530.938,5.25)"><stop offset="0" style="stop-color:#adb6f2;stop-opacity:1"/><stop offset="1" style="stop-color:#962b56;stop-opacity:1"/></linearGradient><linearGradient id="_Linear27" x1="0" y1="0" x2="1" y2="0" gradientUnits="userSpaceOnUse" gradientTransform="matrix(-508.915,364.443,-364.443,-508.915,530.938,5.25)"><stop offset="0" style="stop-color:#adb6f2;stop-opacity:1"/><stop offset="1" style="stop-color:#962b56;stop-opacity:1"/></linearGradient><linearGradient id="_Linear28" x1="0" y1="0" x2="1" y2="0" gradientUnits="userSpaceOnUse" gradientTransform="matrix(-508.915,364.443,-364.443,-508.915,529.938,5.25)"><stop offset="0" style="stop-color:#adb6f2;stop-opacity:1"/><stop offset="1" style="stop-color:#962b56;stop-opacity:1"/></linearGradient><linearGradient id="_Linear29" x1="0" y1="0" x2="1" y2="0" gradientUnits="userSpaceOnUse" gradientTransform="matrix(-508.915,364.443,-364.443,-508.915,527.938,5.25)"><stop offset="0" style="stop-color:#adb6f2;stop-opacity:1"/><stop offset="1" style="stop-color:#962b56;stop-opacity:1"/></linearGradient><linearGradient id="_Linear30" x1="0" y1="0" x2="1" y2="0" gradientUnits="userSpaceOnUse" gradientTransform="matrix(-508.915,364.443,-364.443,-508.915,527.938,5.25)"><stop offset="0" style="stop-color:#adb6f2;stop-opacity:1"/><stop offset="1" style="stop-color:#962b56;stop-opacity:1"/></linearGradient><linearGradient id="_Linear31" x1="0" y1="0" x2="1" y2="0" gradientUnits="userSpaceOnUse" gradientTransform="matrix(-508.915,364.443,-364.443,-508.915,527.938,5.25)"><stop offset="0" style="stop-color:#adb6f2;stop-opacity:1"/><stop offset="1" style="stop-color:#962b56;stop-opacity:1"/></linearGradient><linearGradient id="_Linear32" x1="0" y1="0" x2="1" y2="0" gradientUnits="userSpaceOnUse" gradientTransform="matrix(-508.915,364.443,-364.443,-508.915,527.938,5.25)"><stop offset="0" style="stop-color:#adb6f2;stop-opacity:1"/><stop offset="1" style="stop-color:#962b56;stop-opacity:1"/></linearGradient><linearGradient id="_Linear33" x1="0" y1="0" x2="1" y2="0" gradientUnits="userSpaceOnUse" gradientTransform="matrix(-508.915,364.443,-364.443,-508.915,527.938,5.25)"><stop offset="0" style="stop-color:#adb6f2;stop-opacity:1"/><stop offset="1" style="stop-color:#962b56;stop-opacity:1"/></linearGradient><linearGradient id="_Linear34" x1="0" y1="0" x2="1" y2="0" gradientUnits="userSpaceOnUse" gradientTransform="matrix(-508.915,364.443,-364.443,-508.915,527.938,5.25)"><stop offset="0" style="stop-color:#adb6f2;stop-opacity:1"/><stop offset="1" style="stop-color:#962b56;stop-opacity:1"/></linearGradient><linearGradient id="_Linear35" x1="0" y1="0" x2="1" y2="0" gradientUnits="userSpaceOnUse" gradientTransform="matrix(-508.915,364.443,-364.443,-508.915,527.938,5.25)"><stop offset="0" style="stop-color:#adb6f2;stop-opacity:1"/><stop offset="1" style="stop-color:#962b56;stop-opacity:1"/></linearGradient><linearGradient id="_Linear36" x1="0" y1="0" x2="1" y2="0" gradientUnits="userSpaceOnUse" gradientTransform="matrix(-508.915,364.443,-364.443,-508.915,527.938,5.25)"><stop offset="0" style="stop-color:#adb6f2;stop-opacity:1"/><stop offset="1" style="stop-color:#962b56;stop-opacity:1"/></linearGradient><linearGradient id="_Linear37" x1="0" y1="0" x2="1" y2="0" gradientUnits="userSpaceOnUse" gradientTransform="matrix(-508.915,364.443,-364.443,-508.915,527.938,5.25)"><stop offset="0" style="stop-color:#adb6f2;stop-opacity:1"/><stop offset="1" style="stop-color:#962b56;stop-opacity:1"/></linearGradient><linearGradient id="_Linear38" x1="0" y1="0" x2="1" y2="0" gradientUnits="userSpaceOnUse" gradientTransform="matrix(-508.915,364.443,-364.443,-508.915,527.938,5.25)"><stop offset="0" style="stop-color:#adb6f2;stop-opacity:1"/><stop offset="1" style="stop-color:#962b56;stop-opacity:1"/></linearGradient><linearGradient id="_Linear39" x1="0" y1="0" x2="1" y2="0" gradientUnits="userSpaceOnUse" gradientTransform="matrix(-508.915,364.443,-364.443,-508.915,527.938,5.25)"><stop offset="0" style="stop-color:#adb6f2;stop-opacity:1"/><stop offset="1" style="stop-color:#962b56;stop-opacity:1"/></linearGradient></defs></svg>