<?xml version="1.0" encoding="UTF-8" standalone="no"?><!DOCTYPE svg PUBLIC "-//W3C//DTD SVG 1.1//EN" "http://www.w3.org/Graphics/SVG/1.1/DTD/svg11.dtd"><svg width="100%" height="100%" viewBox="0 0 355 355" version="1.1" xmlns="http://www.w3.org/2000/svg" xmlns:xlink="http://www.w3.org/1999/xlink" xml:space="preserve" xmlns:serif="http://www.serif.com/" style="fill-rule:evenodd;clip-rule:evenodd;stroke-linejoin:round;stroke-miterlimit:2;"><circle cx="177.165" cy="177.165" r="177.165" style="fill:url(#_Linear1);"/><path d="M182.489,76.698c-5.823,0 -10.647,4.824 -10.647,10.647c0,5.822 4.824,10.647 10.647,10.647c5.822,0 10.646,-4.825 10.646,-10.647c0,-5.823 -4.824,-10.647 -10.646,-10.647Zm-63.881,7.985c-16.115,0 -29.278,13.163 -29.278,29.279c0,16.115 13.163,29.278 29.278,29.278c16.116,0 29.279,-13.163 29.279,-29.278c0,-16.116 -13.163,-29.279 -29.279,-29.279Zm0,10.647c10.356,0 18.632,8.276 18.632,18.632c0,10.355 -8.276,18.631 -18.632,18.631c-10.355,0 -18.631,-8.276 -18.631,-18.631c0,-10.356 8.276,-18.632 18.631,-18.632Zm127.761,5.323c-7.278,0 -13.308,6.031 -13.308,13.309c0,7.278 6.03,13.308 13.308,13.308c7.278,0 13.308,-6.03 13.308,-13.308c0,-7.278 -6.03,-13.309 -13.308,-13.309Zm0,10.647c1.539,0 2.662,1.123 2.662,2.662c0,1.538 -1.123,2.661 -2.662,2.661c-1.539,0 -2.662,-1.123 -2.662,-2.661c0,-1.539 1.123,-2.662 2.662,-2.662Zm-154.377,39.925c-14.64,0 -26.617,11.978 -26.617,26.617c0,14.639 11.977,26.617 26.617,26.617c14.639,0 26.616,-11.978 26.616,-26.617c0,-14.639 -11.977,-26.617 -26.616,-26.617Zm0,10.647c8.879,0 15.97,7.091 15.97,15.97c0,8.879 -7.091,15.97 -15.97,15.97c-8.88,0 -15.97,-7.091 -15.97,-15.97c0,-8.879 7.09,-15.97 15.97,-15.97Zm180.994,0c-8.755,0 -15.97,7.216 -15.97,15.97c0,8.754 7.215,15.97 15.97,15.97c8.754,0 15.97,-7.216 15.97,-15.97c0,-8.754 -7.216,-15.97 -15.97,-15.97Zm0,10.647c2.994,0 5.323,2.329 5.323,5.323c0,2.994 -2.329,5.323 -5.323,5.323c-2.995,0 -5.324,-2.329 -5.324,-5.323c0,-2.994 2.329,-5.323 5.324,-5.323Zm-154.378,45.248c-13.162,0 -23.955,10.792 -23.955,23.955c0,13.163 10.793,23.955 23.955,23.955c13.163,0 23.956,-10.792 23.956,-23.955c0,-13.163 -10.793,-23.955 -23.956,-23.955Zm127.761,5.324c-10.231,0 -18.632,8.4 -18.632,18.631c0,10.231 8.401,18.632 18.632,18.632c10.231,0 18.632,-8.401 18.632,-18.632c0,-10.231 -8.401,-18.631 -18.632,-18.631Zm-127.761,5.323c7.403,0 13.309,5.906 13.309,13.308c0,7.403 -5.906,13.309 -13.309,13.309c-7.402,0 -13.308,-5.906 -13.308,-13.309c0,-7.402 5.906,-13.308 13.308,-13.308Zm127.761,5.323c4.471,0 7.985,3.515 7.985,7.985c0,4.471 -3.514,7.985 -7.985,7.985c-4.471,0 -7.985,-3.514 -7.985,-7.985c0,-4.47 3.514,-7.985 7.985,-7.985Zm-63.88,13.309c-11.708,0 -21.294,9.586 -21.294,21.293c0,11.707 9.586,21.294 21.294,21.294c11.707,0 21.293,-9.587 21.293,-21.294c0,-11.707 -9.586,-21.293 -21.293,-21.293Zm0,10.646c5.947,0 10.646,4.7 10.646,10.647c0,5.947 -4.699,10.647 -10.646,10.647c-5.947,0 -10.647,-4.7 -10.647,-10.647c0,-5.947 4.7,-10.647 10.647,-10.647Z" style="fill:#fff;fill-rule:nonzero;"/><text x="133.565px" y="193.812px" style="font-family:'Isidora-Medium', 'Isidora';font-weight:500;font-size:48.248px;fill:#fff;">LIVE</text><defs><linearGradient id="_Linear1" x1="0" y1="0" x2="1" y2="0" gradientUnits="userSpaceOnUse" gradientTransform="matrix(-859.908,1230.43,-1230.43,-859.908,1750.14,-446.412)"><stop offset="0" style="stop-color:#adb6f2;stop-opacity:1"/><stop offset="1" style="stop-color:#962b56;stop-opacity:1"/></linearGradient></defs></svg>