<?xml version="1.0" encoding="UTF-8" standalone="no"?><!DOCTYPE svg PUBLIC "-//W3C//DTD SVG 1.1//EN" "http://www.w3.org/Graphics/SVG/1.1/DTD/svg11.dtd"><svg width="100%" height="100%" viewBox="0 0 355 355" version="1.1" xmlns="http://www.w3.org/2000/svg" xmlns:xlink="http://www.w3.org/1999/xlink" xml:space="preserve" xmlns:serif="http://www.serif.com/" style="fill-rule:evenodd;clip-rule:evenodd;stroke-linejoin:round;stroke-miterlimit:2;"><circle cx="177.165" cy="177.165" r="177.165" style="fill:url(#_Linear1);"/><path d="M177.165,79.704c-52.913,0 -73.339,34.163 -75,66.666l0,27.865c-2.913,3.336 -4.166,7.601 -4.166,13.021c0,9.586 6.201,17.448 15.364,19.531c10.84,28.336 28.809,64.583 59.636,64.583c16.666,0 29.59,-10.84 39.583,-25l-10.807,0c-9.164,11.247 -18.75,16.667 -29.167,16.667c-20.003,0 -37.158,-20.052 -52.995,-61.719l-0.781,-2.474l-2.474,-0.39c-5.42,0 -10.026,-4.948 -10.026,-11.198c0,-2.442 0.456,-4.493 1.172,-6.12l13.672,6.51c1.302,0.635 2.832,0.554 4.053,-0.228c1.204,-0.765 1.953,-2.099 1.936,-3.548l0,-29.817c2.881,-0.196 10.466,-0.489 23.047,-3.516c13.233,-3.174 28.5,-8.854 39.063,-19.011c11.181,14.73 25.634,20.443 29.557,21.745l0,30.599c-0.016,1.449 0.732,2.783 1.937,3.548c1.221,0.782 2.751,0.863 4.053,0.228l6.51,-3.255l0,13.802c-0.667,0.147 -1.383,0.261 -2.083,0.261l-2.474,0.39l-0.912,2.474c-4.166,10.84 -8.333,20.085 -12.5,27.995c4.997,-0.83 9.685,-2.897 13.021,-6.641c2.507,-5.42 4.557,-10.888 6.641,-15.885c0.83,-0.212 1.644,-0.554 2.474,-0.912l0,2.995c0,14.046 -10.954,25 -25,25l-17.448,0c-1.742,-4.817 -6.332,-8.333 -11.719,-8.333l-8.333,0c-6.853,0 -12.5,5.648 -12.5,12.5c0,6.852 5.647,12.5 12.5,12.5l8.333,0c5.387,0 9.977,-3.516 11.719,-8.333l17.448,0c18.457,0 33.333,-14.877 33.333,-33.334l0,-4.166c6.852,0 12.5,-5.648 12.5,-12.5l0,-16.667c0,-6.852 -5.648,-12.5 -12.5,-12.5l0,-16.667c-1.66,-36.67 -22.054,-57.503 -56.641,-58.333l-8.333,-8.333l-1.693,0Zm-1.692,8.333l8.333,8.333l1.693,0c41.666,0 49.17,31.25 50,50l0,16.667l-0.391,0c-2.148,0.195 -3.792,2.002 -3.776,4.167l0,7.812l-4.167,2.083l0,-26.562c0.017,-1.872 -1.204,-3.516 -2.994,-4.037c0,0 -20.769,-6.526 -30.99,-23.177c-0.83,-1.334 -2.344,-2.083 -3.906,-1.953c-1.123,0.114 -2.165,0.668 -2.865,1.563c-8.301,9.961 -24.105,16.194 -38.021,19.531c-13.916,3.337 -25.651,3.906 -25.651,3.906c-2.197,0.13 -3.906,1.97 -3.906,4.167l0,26.693l-8.724,-4.167l0,-26.693c2.507,-42.09 34.945,-57.91 65.365,-58.333Zm64.192,83.333l4.167,0c2.311,0 4.167,1.856 4.167,4.167l0,16.667c0,2.311 -1.856,4.166 -4.167,4.166l-3.385,0c-0.261,-0.065 -0.521,-0.114 -0.782,-0.13l0,-18.099c0.065,-0.439 0.065,-0.863 0,-1.302l0,-5.469Zm-66.666,62.5l8.333,0c2.311,0 4.167,1.856 4.167,4.167c0,2.311 -1.856,4.167 -4.167,4.167l-8.333,0c-2.312,0 -4.167,-1.856 -4.167,-4.167c0,-2.311 1.855,-4.167 4.167,-4.167Z" style="fill:#fff;fill-rule:nonzero;"/><defs><linearGradient id="_Linear1" x1="0" y1="0" x2="1" y2="0" gradientUnits="userSpaceOnUse" gradientTransform="matrix(-859.908,1230.43,-1230.43,-859.908,999.96,87.2284)"><stop offset="0" style="stop-color:#adb6f2;stop-opacity:1"/><stop offset="1" style="stop-color:#962b56;stop-opacity:1"/></linearGradient></defs></svg>