<?xml version="1.0" encoding="UTF-8" standalone="no"?><!DOCTYPE svg PUBLIC "-//W3C//DTD SVG 1.1//EN" "http://www.w3.org/Graphics/SVG/1.1/DTD/svg11.dtd"><svg width="100%" height="100%" viewBox="0 0 355 355" version="1.1" xmlns="http://www.w3.org/2000/svg" xmlns:xlink="http://www.w3.org/1999/xlink" xml:space="preserve" xmlns:serif="http://www.serif.com/" style="fill-rule:evenodd;clip-rule:evenodd;stroke-linecap:round;stroke-linejoin:round;stroke-miterlimit:1.5;"><circle cx="177.165" cy="177.165" r="177.165" style="fill:url(#_Linear1);"/><g><path d="M209.844,131.004c0,-5.06 -4.102,-9.162 -9.163,-9.162c-12.45,0 -34.582,0 -47.032,0c-5.06,0 -9.162,4.102 -9.162,9.162c0,29.723 0,121.552 0,121.552l65.357,0l0,-121.552Z" style="fill:none;stroke:#fff;stroke-width:8.33px;"/><path d="M245.481,252.556l-136.631,0l0,0c0,4.99 1.982,9.775 5.51,13.304c3.528,3.528 8.314,5.51 13.304,5.51l99.003,0c4.99,0 9.775,-1.982 13.304,-5.51c3.528,-3.529 5.51,-8.314 5.51,-13.304l0,0Z" style="fill:none;stroke:#fff;stroke-width:8.33px;"/><path d="M177.725,120.795l-0.001,-10.843" style="fill:none;stroke:#fff;stroke-width:6.25px;"/><path d="M177.427,66.969c9.371,10.813 17.965,41.444 -0.034,41.927c-21.948,0.589 -0.457,-27.868 0.034,-41.927Z" style="fill:none;stroke:#fff;stroke-width:8.33px;"/></g><defs><linearGradient id="_Linear1" x1="0" y1="0" x2="1" y2="0" gradientUnits="userSpaceOnUse" gradientTransform="matrix(-859.908,1230.43,-1230.43,-859.908,1750.14,87.2284)"><stop offset="0" style="stop-color:#adb6f2;stop-opacity:1"/><stop offset="1" style="stop-color:#962b56;stop-opacity:1"/></linearGradient></defs></svg>