<?xml version="1.0" encoding="UTF-8" standalone="no"?><!DOCTYPE svg PUBLIC "-//W3C//DTD SVG 1.1//EN" "http://www.w3.org/Graphics/SVG/1.1/DTD/svg11.dtd"><svg width="100%" height="100%" viewBox="0 0 355 355" version="1.1" xmlns="http://www.w3.org/2000/svg" xmlns:xlink="http://www.w3.org/1999/xlink" xml:space="preserve" xmlns:serif="http://www.serif.com/" style="fill-rule:evenodd;clip-rule:evenodd;stroke-linejoin:round;stroke-miterlimit:2;"><circle cx="177.165" cy="177.165" r="177.165" style="fill:url(#_Linear1);"/><path d="M173.481,72.635c-8.041,-0.065 -17.285,3.516 -23.047,12.891c-5.257,8.333 -6.999,19.401 -3.906,29.427c-0.163,0.293 -0.537,0.504 -0.651,0.781c-0.407,1.009 -0.521,1.986 -0.651,3.255c-0.586,5.843 1.709,11.41 4.427,15.235c0.049,0.081 0.081,0.048 0.13,0.13c1.09,1.546 2.002,1.79 2.995,2.344c0.423,1.806 2.099,6.754 6.64,12.63c0.163,1.025 -0.065,1.644 -0.651,2.343c-0.521,0.619 -0.976,0.782 -1.172,0.912c-8.398,1.579 -16.471,4.492 -23.046,8.203c-5.925,3.353 -10.743,7.373 -13.412,12.37l-35.547,0c-6.852,0 -12.5,5.648 -12.5,12.5l0,7.031c-0.456,1.481 -0.049,3.076 1.042,4.167l16.146,28.385c0.748,1.302 2.148,2.1 3.646,2.084l18.489,0l8.203,50.651c0.114,1.562 1.107,2.929 2.556,3.531c1.448,0.603 3.125,0.342 4.313,-0.683c1.188,-1.026 1.709,-2.621 1.334,-4.151l-8.593,-53.515l0,-0.521c-0.033,-0.407 -0.114,-0.798 -0.261,-1.172l-1.041,-6.64l116.666,0l-9.896,61.848c-0.374,1.53 0.147,3.125 1.335,4.151c1.188,1.025 2.865,1.286 4.313,0.683c1.449,-0.602 2.442,-1.969 2.555,-3.531l8.204,-50.651l18.489,0c1.498,0.016 2.897,-0.782 3.646,-2.084l16.667,-29.166c0.358,-0.635 0.537,-1.351 0.521,-2.084l0,-8.333c0,-6.625 -5.306,-12.012 -11.849,-12.37c-0.196,-4.541 -0.831,-8.545 -2.605,-12.109c-1.627,-3.272 -4.069,-6.055 -7.291,-8.464c0.569,-1.416 0.911,-2.946 0.911,-4.557c0,-6.852 -5.648,-12.5 -12.5,-12.5c-6.852,0 -12.5,5.648 -12.5,12.5c0,6.852 5.648,12.5 12.5,12.5c2.165,0 4.199,-0.586 5.99,-1.563c2.653,1.905 4.264,3.728 5.338,5.86c1.042,2.067 1.595,4.703 1.823,8.203l-27.995,0c-2.685,-4.785 -7.454,-8.626 -13.151,-11.849c-6.705,-3.809 -14.892,-6.722 -23.567,-8.464l-0.131,0c-0.13,-0.048 -0.716,-0.341 -1.041,-0.651c-0.179,-0.162 -0.244,-0.195 -0.261,-0.26c-0.016,-0.065 -0.016,-0.358 0.521,-1.432c2.018,-2.735 3.744,-5.551 4.948,-7.943c0.993,-2.002 1.514,-3.451 1.953,-4.948c1.628,-1.27 6.82,-5.697 7.292,-13.802c0.228,-3.874 -0.098,-6.201 -0.781,-8.073c-0.098,-0.244 -0.277,-0.423 -0.391,-0.651c1.27,-5.306 1.872,-12.907 -0.13,-20.573c-1.123,-4.313 -3.158,-8.545 -6.771,-11.589c-2.978,-2.522 -7.178,-3.531 -11.849,-3.385c-1.432,-1.888 -3.255,-3.467 -5.469,-4.557c-3.157,-1.546 -6.917,-2.311 -10.937,-2.344Zm0,8.333c2.799,0.017 5.403,0.635 7.291,1.563c1.888,0.928 2.816,2.165 2.995,2.604c0.716,1.839 2.621,2.93 4.558,2.604c4.069,-0.683 6.298,0.065 8.072,1.563c1.775,1.497 3.191,4.183 4.037,7.422c1.709,6.494 0.732,15.348 -0.13,18.099c-0.44,1.416 -0.082,2.945 0.911,4.036c0.065,0.244 0.44,1.4 0.261,4.427c-0.277,4.753 -5.079,8.594 -5.079,8.594c-0.83,0.635 -1.383,1.562 -1.562,2.604c-0.049,0.212 -0.732,2.116 -1.823,4.297c-1.09,2.181 -2.539,4.834 -4.427,7.292c-0.195,0.195 -0.374,0.423 -0.521,0.651c-1.123,2.262 -1.546,4.524 -1.172,6.64c0.375,2.116 1.563,3.858 2.735,4.948c2.343,2.165 4.948,2.604 4.948,2.604c0.081,0.049 0.179,0.098 0.26,0.13c7.943,1.596 15.462,4.281 21.224,7.553c2.523,1.432 4.541,3.027 6.25,4.557l-90.755,0c1.855,-1.774 4.297,-3.581 7.161,-5.208c5.86,-3.321 13.477,-5.909 21.354,-7.292c0.456,-0.098 0.896,-0.277 1.302,-0.521c0,0 1.905,-1.074 3.646,-3.125c1.742,-2.051 3.565,-5.615 2.604,-9.766c-0.179,-0.683 -0.537,-1.318 -1.041,-1.823c-5.062,-5.794 -5.99,-11.718 -5.99,-11.718c-0.26,-1.319 -1.123,-2.425 -2.344,-2.995c-0.83,-0.423 -1.806,-1.351 -1.692,-1.172l-0.13,0c-1.433,-2.002 -3.239,-7.324 -2.995,-9.766c0.032,-0.309 0.097,-0.211 0.13,-0.39c0.244,-0.179 0.423,-0.114 0.651,-0.391c0.895,-1.074 0.911,-2.246 0.911,-2.864c0.033,-0.57 -0.065,-1.156 -0.26,-1.693c-3.141,-7.666 -1.66,-17.708 2.604,-24.479c4.232,-6.869 10.401,-9.033 16.016,-8.985Zm-20.834,38.802c-0.146,0.131 -0.065,0.277 -0.26,0.391c-0.293,0.163 -0.553,0.212 -0.781,0.26c0.179,-0.032 0.683,-0.488 1.041,-0.651Zm95.443,24.219c2.344,0 4.167,1.823 4.167,4.167c0,1.009 -0.358,1.888 -0.912,2.604c-0.293,0.228 -0.553,0.488 -0.781,0.781c-0.683,0.489 -1.546,0.782 -2.474,0.782c-2.344,0 -4.166,-1.823 -4.166,-4.167c0,-2.344 1.822,-4.167 4.166,-4.167Zm-162.5,37.5l144.011,0c0.797,0.244 1.676,0.244 2.474,0l36.849,0c2.311,0 4.166,1.856 4.166,4.167l0,4.167l-191.666,0l0,-4.167c0,-2.311 1.855,-4.167 4.166,-4.167Zm-1.172,16.667l185.677,0l-11.979,20.833l-14.713,0l0.521,-3.125c0.846,-5.094 -3.077,-9.375 -7.943,-9.375l-117.448,0c-4.818,0 -8.724,4.72 -7.943,9.375l0.521,3.125l-14.714,0l-11.979,-20.833Z" style="fill:#fff;fill-rule:nonzero;"/><defs><linearGradient id="_Linear1" x1="0" y1="0" x2="1" y2="0" gradientUnits="userSpaceOnUse" gradientTransform="matrix(-859.908,1230.43,-1230.43,-859.908,249.779,87.2284)"><stop offset="0" style="stop-color:#adb6f2;stop-opacity:1"/><stop offset="1" style="stop-color:#962b56;stop-opacity:1"/></linearGradient></defs></svg>