<?xml version="1.0" encoding="UTF-8" standalone="no"?><!DOCTYPE svg PUBLIC "-//W3C//DTD SVG 1.1//EN" "http://www.w3.org/Graphics/SVG/1.1/DTD/svg11.dtd"><svg width="100%" height="100%" viewBox="0 0 355 355" version="1.1" xmlns="http://www.w3.org/2000/svg" xmlns:xlink="http://www.w3.org/1999/xlink" xml:space="preserve" xmlns:serif="http://www.serif.com/" style="fill-rule:evenodd;clip-rule:evenodd;stroke-linejoin:round;stroke-miterlimit:2;"><circle cx="177.165" cy="177.165" r="177.165" style="fill:url(#_Linear1);"/><path d="M174.446,86.073c-2.019,-0.016 -3.76,1.432 -4.118,3.418l-2.279,12.468c-1.953,0.634 -3.841,1.399 -5.696,2.311l-10.238,-7.39c-1.644,-1.188 -3.923,-1.025 -5.355,0.424l-8.903,8.756c-1.432,1.432 -1.644,3.679 -0.488,5.339l7.194,10.416c-0.944,1.84 -1.742,3.728 -2.376,5.664l-12.484,2.019c-2.002,0.309 -3.483,2.034 -3.499,4.085l-0.082,12.5c-0.016,2.018 1.432,3.76 3.418,4.118l12.516,2.278c0.619,1.937 1.4,3.809 2.312,5.648l-7.439,10.287c-1.188,1.644 -1.025,3.922 0.407,5.371l8.789,8.887c1.416,1.432 3.662,1.643 5.323,0.488l10.547,-7.259c1.822,0.927 3.694,1.692 5.615,2.327l2.148,12.63c0.342,2.002 2.051,3.467 4.085,3.483l12.484,0.066c2.051,0.016 3.793,-1.465 4.134,-3.467l2.132,-12.614c1.905,-0.619 3.76,-1.367 5.567,-2.279l10.465,7.438c1.661,1.172 3.907,0.977 5.339,-0.439l8.903,-8.773c1.448,-1.432 1.644,-3.711 0.456,-5.387l-7.422,-10.417c0.928,-1.807 1.709,-3.646 2.344,-5.534l12.679,-2.148c1.985,-0.342 3.45,-2.067 3.466,-4.102l0.065,-12.484c0.017,-2.034 -1.448,-3.776 -3.466,-4.117l-12.565,-2.133c-0.619,-1.92 -1.384,-3.792 -2.279,-5.631l7.389,-10.433c1.188,-1.644 1.009,-3.89 -0.423,-5.339l-8.789,-8.886c-1.432,-1.433 -3.711,-1.644 -5.371,-0.456l-10.319,7.324c-1.823,-0.928 -3.678,-1.709 -5.583,-2.344l-2.018,-12.532c-0.326,-2.018 -2.051,-3.499 -4.102,-3.516l-12.483,-0.065Zm3.45,8.35l5.469,0.032l1.807,11.263c0.26,1.644 1.481,2.963 3.076,3.37c3.06,0.781 6.006,2.034 8.773,3.71c1.416,0.879 3.222,0.814 4.573,-0.146l9.294,-6.592l3.841,3.874l-6.69,9.375c-0.944,1.351 -1.025,3.125 -0.179,4.541c1.644,2.783 2.849,5.745 3.565,8.789c0.39,1.628 1.709,2.865 3.369,3.158l11.312,1.904l-0.033,5.452l-11.425,1.921c-1.628,0.277 -2.946,1.497 -3.353,3.092c-0.765,3.028 -1.986,5.957 -3.662,8.692c-0.863,1.432 -0.798,3.239 0.179,4.59l6.656,9.391l-3.857,3.825l-9.456,-6.706c-1.351,-0.96 -3.125,-1.025 -4.541,-0.179c-2.767,1.644 -5.697,2.816 -8.741,3.564c-1.627,0.391 -2.848,1.709 -3.125,3.353l-1.92,11.361l-5.436,-0.049l-1.921,-11.393c-0.277,-1.628 -1.497,-2.946 -3.125,-3.337c-3.011,-0.748 -5.973,-1.985 -8.74,-3.646c-1.4,-0.846 -3.174,-0.797 -4.525,0.147l-9.489,6.543l-3.841,-3.89l6.689,-9.245c0.977,-1.351 1.058,-3.157 0.196,-4.59c-1.644,-2.783 -2.849,-5.745 -3.597,-8.805c-0.391,-1.595 -1.677,-2.816 -3.304,-3.125l-11.263,-2.035l0.049,-5.468l11.214,-1.807c1.644,-0.26 2.978,-1.481 3.385,-3.092c0.781,-3.077 2.002,-6.039 3.695,-8.806c0.862,-1.399 0.814,-3.19 -0.13,-4.541l-6.462,-9.375l3.874,-3.841l9.212,6.641c1.335,0.976 3.125,1.058 4.557,0.228c2.8,-1.677 5.778,-2.865 8.854,-3.614c1.612,-0.374 2.832,-1.676 3.125,-3.287l2.051,-11.247Zm2.344,25.13c-5.355,-0.033 -10.726,1.969 -14.811,6.022c-8.171,8.073 -8.236,21.371 -0.163,29.557c8.073,8.171 21.387,8.236 29.557,0.163c8.171,-8.073 8.236,-21.387 0.163,-29.557c-4.036,-4.085 -9.391,-6.152 -14.746,-6.185Zm-0.033,8.285c3.207,0.016 6.397,1.269 8.855,3.759c4.915,4.964 4.866,12.858 -0.098,17.757c-4.964,4.916 -12.858,4.883 -17.774,-0.081c-4.915,-4.98 -4.866,-12.874 0.098,-17.773c2.49,-2.458 5.697,-3.679 8.919,-3.662Zm-43.994,66.569c-10.872,0 -15.885,2.604 -21.289,4.687l0,0.016c-10.368,4.037 -28.109,12.403 -28.109,12.403c-2.083,0.976 -2.978,3.466 -2.001,5.55c0.992,2.083 3.483,2.978 5.566,2.002c0,0 17.855,-8.415 27.555,-12.191c5.99,-2.327 8.594,-4.134 18.278,-4.134c21.371,0 20.508,9.277 29.525,14.583c0.13,0.082 0.277,0.163 0.423,0.212c11.182,5.013 23.194,6.038 32.878,6.038c4.28,0 6.982,0.993 8.447,2.1c1.449,1.123 1.969,2.278 1.969,4.15c0,2.197 -0.553,3.239 -2.001,4.297c-1.433,1.042 -4.2,1.953 -8.415,1.953l-21.875,0c-9.18,0 -24.984,-4.036 -24.984,-4.036c-1.432,-0.391 -2.978,0.032 -4.036,1.09c-1.058,1.058 -1.465,2.604 -1.075,4.037c0.407,1.448 1.547,2.571 2.995,2.946c0,0 15.674,4.297 27.1,4.297l21.875,0c4.248,0 7.943,-0.7 11.035,-2.23c0.407,-0.114 0.797,-0.293 1.139,-0.537l39.519,-25.928c5.94,-3.434 9.993,-4.395 12.369,-4.362c2.377,0.049 3.19,0.765 3.907,1.676c1.057,1.368 1.123,1.888 0.439,3.467c-0.7,1.595 -2.734,4.053 -6.396,6.592l-0.017,0c-4.524,3.157 -55.127,36.133 -60.97,39.453c-4.411,2.507 -7.91,5.143 -11.898,6.266c-3.987,1.107 -8.691,1.107 -16.471,-2.604c-5.192,-2.49 -27.295,-13.818 -34.456,-17.448c-3.988,-2.018 -7.39,-3.157 -10.856,-2.962c-3.484,0.195 -6.429,1.676 -9.473,3.597c-0.016,0 -0.033,0.016 -0.033,0.033l-10.319,6.591c-1.302,0.782 -2.067,2.214 -2.018,3.728c0.049,1.513 0.928,2.88 2.279,3.564c1.367,0.684 2.978,0.586 4.232,-0.277l10.27,-6.575c2.653,-1.66 4.15,-2.263 5.517,-2.344c1.367,-0.081 3.239,0.358 6.641,2.083c7.096,3.597 28.857,14.763 34.635,17.513c9.066,4.346 16.407,4.753 22.282,3.125c5.876,-1.643 10.059,-4.931 13.786,-7.047c8.04,-4.574 55.811,-35.824 61.621,-39.86c4.411,-3.076 7.65,-6.283 9.294,-10.124c1.644,-3.841 1.107,-8.528 -1.514,-11.881l0,-0.017c-2.067,-2.636 -5.729,-4.785 -10.335,-4.882c-2.621,-0.049 -5.534,0.553 -8.773,1.741c-0.602,-0.797 -1.514,-1.839 -2.767,-2.751c-2.425,-1.806 -6.282,-3.434 -11.523,-3.434c-2.686,0 -4.883,0.619 -6.641,1.351c-2.507,-2.392 -6.95,-5.436 -13.411,-5.436c-5.241,0 -10.157,1.758 -13.575,3.776c-0.634,0.374 -2.164,1.335 -4.769,2.962c-2.604,1.628 -6.005,3.727 -9.358,5.827c-5.355,3.337 -8.675,5.42 -10.596,6.624c-4.085,-0.813 -8.171,-1.969 -12.028,-3.662c-3.288,-2.116 -9.619,-15.608 -33.594,-15.608Zm83.92,8.414c2.636,0 4.524,0.668 5.859,1.449l-19.271,11.946c-2.295,-0.651 -4.866,-0.976 -7.682,-0.976c-1.205,0 -2.523,-0.082 -3.776,-0.13c0.781,-0.489 0.781,-0.489 1.579,-0.977c3.352,-2.1 6.738,-4.215 9.358,-5.843c2.604,-1.611 4.737,-2.93 4.59,-2.848c1.97,-1.172 6.25,-2.621 9.343,-2.621Zm20.052,4.086c3.385,0 5.208,0.862 6.315,1.627c-0.065,0.033 -0.114,0.065 -0.179,0.114l-28.793,18.88c-0.39,-2.327 -1.351,-4.557 -2.88,-6.412l20.133,-12.484l0.016,-0.033c0.163,-0.081 3.646,-1.692 5.388,-1.692Z" style="fill:#fff;fill-rule:nonzero;"/><defs><linearGradient id="_Linear1" x1="0" y1="0" x2="1" y2="0" gradientUnits="userSpaceOnUse" gradientTransform="matrix(-859.908,1230.43,-1230.43,-859.908,249.779,-446.412)"><stop offset="0" style="stop-color:#adb6f2;stop-opacity:1"/><stop offset="1" style="stop-color:#962b56;stop-opacity:1"/></linearGradient></defs></svg>