<?xml version="1.0" encoding="UTF-8" standalone="no"?><!DOCTYPE svg PUBLIC "-//W3C//DTD SVG 1.1//EN" "http://www.w3.org/Graphics/SVG/1.1/DTD/svg11.dtd"><svg width="100%" height="100%" viewBox="0 0 547 280" version="1.1" xmlns="http://www.w3.org/2000/svg" xmlns:xlink="http://www.w3.org/1999/xlink" xml:space="preserve" xmlns:serif="http://www.serif.com/" style="fill-rule:evenodd;clip-rule:evenodd;stroke-linejoin:round;stroke-miterlimit:2;"><path d="M63.846,248.532c36.111,0 63.846,-26.804 63.846,-62.729c0,-35.925 -27.735,-62.729 -63.846,-62.729c-36.111,0 -63.846,26.804 -63.846,62.729c0,35.925 27.735,62.729 63.846,62.729Zm0,-12.285c-28.479,0 -50.072,-21.034 -50.072,-50.444c0,-29.41 21.593,-50.444 50.072,-50.444c28.479,0 50.071,21.034 50.071,50.444c0,29.41 -21.592,50.444 -50.071,50.444Z" style="fill:#b9bcd2;fill-opacity:0.75;fill-rule:nonzero;"/><path d="M268.227,182.266l-0.931,-1.117l-59.937,0l0,11.913l47.28,0c0,22.337 -20.662,43.185 -47.652,43.185c-26.99,0 -48.582,-21.034 -48.582,-50.444c0,-29.41 21.592,-50.444 49.141,-50.444c16.38,0 30.713,7.446 39.647,19.731l0.931,0l9.121,-7.632l0,-0.931c-11.355,-14.705 -29.224,-23.453 -49.513,-23.453c-35.367,0 -63.102,26.804 -63.102,62.729c0,35.925 27.735,62.729 62.729,62.729c35.553,0 61.24,-27.549 61.24,-60.868c0,-2.047 0,-3.35 -0.372,-5.398Z" style="fill:#b9bcd2;fill-opacity:0.75;fill-rule:nonzero;"/><path d="M386.612,248.532c36.111,0 63.846,-26.804 63.846,-62.729c0,-35.925 -27.735,-62.729 -63.846,-62.729c-36.111,0 -63.846,26.804 -63.846,62.729c0,35.925 27.735,62.729 63.846,62.729Zm0,-12.285c-28.48,0 -50.072,-21.034 -50.072,-50.444c0,-29.41 21.592,-50.444 50.072,-50.444c28.479,0 50.071,21.034 50.071,50.444c0,29.41 -21.592,50.444 -50.071,50.444Z" style="fill:#b9bcd2;fill-opacity:0.75;fill-rule:nonzero;"/><path d="M507.416,137.22l0,109.078l-13.402,0l0,-109.078l-39.275,0l0,-11.913l91.953,0l0,11.913l-39.276,0Z" style="fill:#b9bcd2;fill-opacity:0.75;fill-rule:nonzero;"/><path d="M291.619,279.485l0,-193.929c-1.96,-0.59 -3.784,-1.496 -5.41,-2.66l0.275,0.276l-18.213,18.182c2.809,4.793 2.156,11.06 -1.957,15.166c-4.882,4.874 -12.803,4.867 -17.677,-0.015c-4.874,-4.883 -4.868,-12.804 0.015,-17.678c4.112,-4.105 10.381,-4.748 15.169,-1.931l18.187,-18.156c-1.647,-2.254 -2.798,-4.894 -3.289,-7.758l-25.439,-0.009c-1.4,5.377 -6.291,9.349 -12.102,9.347c-6.899,-0.002 -12.499,-5.605 -12.496,-12.504c0.002,-6.899 5.605,-12.498 12.504,-12.496c5.811,0.002 10.7,3.977 12.096,9.354l25.439,0.009c0.476,-2.764 1.566,-5.32 3.126,-7.521l-17.995,-18.003c-4.792,2.812 -11.059,2.163 -15.167,-1.947c-4.877,-4.88 -4.876,-12.801 0.004,-17.678c4.879,-4.877 12.8,-4.875 17.677,0.004c4.108,4.11 4.755,10.378 1.941,15.168l17.998,18.006c2.196,-1.549 4.743,-2.633 7.498,-3.106l0,-25.007c-5.376,-1.398 -9.35,-6.288 -9.35,-12.099c0,-6.899 5.601,-12.5 12.5,-12.5c6.899,0 12.5,5.601 12.5,12.5c0,5.811 -3.974,10.701 -9.351,12.099l0,25.007c2.873,0.493 5.52,1.65 7.778,3.307l17.755,-17.725c-2.809,-4.793 -2.156,-11.06 1.956,-15.166c4.883,-4.874 12.804,-4.867 17.678,0.015c4.874,4.883 4.867,12.804 -0.015,17.678c-4.113,4.106 -10.381,4.748 -15.169,1.931l-17.829,17.799c1.456,2.139 2.476,4.599 2.93,7.25l25.44,0.008c1.4,-5.376 6.291,-9.348 12.102,-9.346c6.899,0.002 12.498,5.605 12.496,12.504c-0.002,6.899 -5.605,12.498 -12.504,12.496c-5.811,-0.002 -10.7,-3.978 -12.096,-9.355l-25.44,-0.008c-0.474,2.755 -1.559,5.303 -3.11,7.499l17.98,17.988c4.791,-2.812 11.059,-2.163 15.167,1.947c4.877,4.879 4.875,12.801 -0.004,17.678c-4.879,4.877 -12.801,4.875 -17.678,-0.004c-4.108,-4.11 -4.754,-10.378 -1.94,-15.168l-17.977,-17.985c-1.608,1.138 -3.405,2.026 -5.335,2.607l0,193.929m-49.935,-166.689c2.827,2.831 7.421,2.835 10.253,0.008c2.832,-2.827 2.836,-7.421 0.009,-10.253c-2.827,-2.831 -7.421,-2.835 -10.253,-0.008c-2.832,2.827 -2.836,7.421 -0.009,10.253Zm89.153,-0.403c-2.83,2.828 -7.424,2.827 -10.253,-0.003c-2.828,-2.83 -2.827,-7.424 0.003,-10.253c2.83,-2.828 7.424,-2.827 10.253,0.003c2.828,2.83 2.827,7.424 -0.003,10.253Zm-44.552,-54.372c5.657,0 10.25,4.593 10.25,10.25c0,5.657 -4.593,10.25 -10.25,10.25c-5.657,0 -10.25,-4.593 -10.25,-10.25c0,-5.657 4.593,-10.25 10.25,-10.25Zm63.021,9.838c-0.001,4.001 -3.251,7.249 -7.252,7.248c-4.002,-0.002 -7.249,-3.251 -7.248,-7.253c0.001,-4.001 3.251,-7.249 7.252,-7.247c4.002,0.001 7.249,3.251 7.248,7.252Zm-126.042,-0.041c-0.002,4.001 3.246,7.251 7.247,7.252c4.002,0.001 7.251,-3.246 7.253,-7.248c0.001,-4.001 -3.246,-7.251 -7.248,-7.252c-4.001,-0.001 -7.251,3.246 -7.252,7.248Zm107.622,-44.071c2.827,2.831 2.823,7.426 -0.009,10.253c-2.832,2.827 -7.426,2.823 -10.253,-0.009c-2.827,-2.832 -2.823,-7.426 0.008,-10.253c2.832,-2.827 7.427,-2.823 10.254,0.009Zm-89.154,-0.5c-2.83,2.829 -2.831,7.423 -0.002,10.253c2.829,2.83 7.423,2.831 10.253,0.003c2.83,-2.829 2.831,-7.423 0.002,-10.253c-2.828,-2.83 -7.423,-2.832 -10.253,-0.003Zm44.553,-17.997c4.001,0 7.25,3.249 7.25,7.25c0,4.001 -3.249,7.25 -7.25,7.25c-4.002,0 -7.25,-3.249 -7.25,-7.25c0,-4.001 3.248,-7.25 7.25,-7.25Z" style="fill:#b9bcd2;fill-opacity:0.85;"/></svg>