<?xml version="1.0" encoding="UTF-8" standalone="no"?><!DOCTYPE svg PUBLIC "-//W3C//DTD SVG 1.1//EN" "http://www.w3.org/Graphics/SVG/1.1/DTD/svg11.dtd"><svg width="100%" height="100%" viewBox="0 0 355 355" version="1.1" xmlns="http://www.w3.org/2000/svg" xmlns:xlink="http://www.w3.org/1999/xlink" xml:space="preserve" xmlns:serif="http://www.serif.com/" style="fill-rule:evenodd;clip-rule:evenodd;stroke-linejoin:round;stroke-miterlimit:2;"><circle cx="177.165" cy="177.165" r="177.165" style="fill:url(#_Linear1);"/><path d="M152.734,102.724c-16.067,0 -29.175,13.108 -29.175,29.175c0,14.428 10.597,26.444 24.406,28.735l-0.627,0.415l-2.954,0c-4.547,0.005 -8.913,0.085 -12.736,2.385l-41.658,25c-0.039,0.021 -0.077,0.042 -0.114,0.065l-0.733,0.472c-0.047,0.031 -0.093,0.064 -0.138,0.097c-4.666,3.272 -7.528,8.877 -7.064,14.934c0.669,8.697 7.994,15.389 16.602,15.389c0.429,0 0.863,-0.016 1.294,-0.049l23.722,-1.823l0,39.372c0,2.285 1.881,4.166 4.167,4.166l58.333,0c2.286,0 4.166,-1.881 4.167,-4.166l0,-38.265l9.041,8.39c3.167,3.125 7.334,4.875 11.792,4.875c1.083,0 2.164,-0.126 3.247,-0.334c5.458,-1.083 10.002,-4.79 12.085,-9.79l25.041,-54.297c2.083,-5 1.487,-10.399 -1.034,-14.746l6.494,0c0,4.554 3.779,8.333 8.334,8.333c4.554,0 8.333,-3.779 8.333,-8.333c0,-4.554 -3.779,-8.333 -8.333,-8.333l-52.417,0l-5.998,8.333l14.665,0c0,0.083 0.001,0.169 -0.041,0.252c0,0 0.042,0.041 0,0.041c-0.25,0.458 -0.459,0.916 -0.667,1.416l-1.124,2.295c-1.5,2.208 -3.877,4.329 -6.502,4.329l-12.378,0l-6.038,8.334l18.416,0c0.125,0 0.29,0.001 0.415,-0.041l-8.252,17.163l-14.201,-12.126l-2.465,3.378l-2.458,3.418l17.798,15.169c1,0.833 2.289,1.203 3.581,0.911c1.25,-0.25 2.331,-1.121 2.872,-2.246l16.252,-33.748l1.668,-3.418c0.209,-0.5 0.498,-0.998 0.79,-1.457l0.04,-0.049c0.875,-1.333 2.17,-2.369 3.711,-2.994c2.042,-0.834 4.331,-0.834 6.372,0c4.25,1.791 6.25,6.667 4.541,10.75l-25.04,54.329c-1.084,2.584 -3.371,4.423 -6.08,4.965c-2.75,0.541 -5.542,-0.335 -7.625,-2.377l-15.617,-14.461c-0.782,-1.09 -2.044,-1.737 -3.385,-1.737c-2.286,0 -4.167,1.881 -4.167,4.167c0,0.017 0,0.035 0,0.052l0,43.685l-50,0l0,-35.848l22.111,-1.701c9.129,-0.702 16.042,-8.767 15.34,-17.895c-0.149,-1.946 -0.691,-3.762 -1.448,-5.453l17.545,-23.706c0.256,-0.265 0.475,-0.564 0.651,-0.887l36.654,-49.528c0.556,-0.727 0.857,-1.616 0.857,-2.531c0,-2.253 -1.827,-4.119 -4.08,-4.166c-1.374,-0.033 -2.68,0.616 -3.483,1.733l-23.421,31.649l-13.582,0c1.814,-3.795 2.856,-8.021 2.856,-12.492c0,-16.067 -13.106,-29.175 -29.158,-29.175Zm0,8.333c11.547,0 20.825,9.275 20.825,20.842c0,11.547 -9.278,20.825 -20.825,20.825c-11.567,0 -20.842,-9.278 -20.842,-20.825c0,-11.567 9.275,-20.842 20.842,-20.842Zm22.078,41.667l11.646,0l-6.169,8.333l-17.977,0l12.5,-8.333Zm-30.42,16.659l4.126,0c0.014,0 0.027,0.008 0.041,0.008l0.553,-0.008l16.114,0.008l8.894,0l-11.661,15.763c-3.098,-2.256 -6.929,-3.53 -11.011,-3.214l-22.99,1.765c-2.176,0.147 -3.887,1.978 -3.887,4.158c0,2.286 1.881,4.167 4.167,4.167c0.121,0 0.242,-0.005 0.363,-0.016l22.982,-1.766c0.002,0 0.005,0 0.008,0c4.598,-0.355 8.588,3.04 8.943,7.666c0.357,4.639 -3.027,8.596 -7.666,8.952c-0.002,0 -0.005,0 -0.008,0l-54.166,4.167c-0.219,0.017 -0.439,0.024 -0.651,0.024c-4.326,0 -7.953,-3.271 -8.293,-7.69c-0.236,-3.073 1.203,-5.833 3.532,-7.471l0.008,-0.008l0.537,-0.342l41.61,-24.967c0.003,0 0.005,0 0.008,0c0.194,-0.117 4.663,-1.191 8.447,-1.196Z" style="fill:#fff;fill-rule:nonzero;"/><defs><linearGradient id="_Linear1" x1="0" y1="0" x2="1" y2="0" gradientUnits="userSpaceOnUse" gradientTransform="matrix(-859.908,1230.43,-1230.43,-859.908,1750.14,-446.412)"><stop offset="0" style="stop-color:#adb6f2;stop-opacity:1"/><stop offset="1" style="stop-color:#962b56;stop-opacity:1"/></linearGradient></defs></svg>