<?xml version="1.0" encoding="UTF-8" standalone="no"?><!DOCTYPE svg PUBLIC "-//W3C//DTD SVG 1.1//EN" "http://www.w3.org/Graphics/SVG/1.1/DTD/svg11.dtd"><svg width="100%" height="100%" viewBox="0 0 355 355" version="1.1" xmlns="http://www.w3.org/2000/svg" xmlns:xlink="http://www.w3.org/1999/xlink" xml:space="preserve" xmlns:serif="http://www.serif.com/" style="fill-rule:evenodd;clip-rule:evenodd;stroke-linejoin:round;stroke-miterlimit:2;"><circle cx="177.165" cy="177.165" r="177.165" style="fill:url(#_Linear1);"/><path d="M227.165,89.665c-10.016,0 -19.43,3.903 -26.513,10.987l-20.834,20.833c-6.02,6.021 -9.742,13.725 -10.726,22.054c-0.17,1.467 -0.26,2.96 -0.26,4.46c0,5.7 1.307,11.195 3.703,16.186l6.356,-6.364c-1.113,-3.116 -1.726,-6.418 -1.726,-9.822c0,-7.792 3.037,-15.11 8.545,-20.622l20.834,-20.833c5.512,-5.509 12.83,-8.545 20.621,-8.545c7.792,0 15.11,3.036 20.622,8.545c5.513,5.508 8.545,12.83 8.545,20.621c0,7.792 -3.037,15.11 -8.545,20.622l-20.833,20.833c-5.513,5.509 -12.83,8.545 -20.622,8.545c-3.404,0 -6.706,-0.612 -9.823,-1.725l-6.364,6.356c4.992,2.396 10.487,3.703 16.187,3.703c10.017,0 19.43,-3.903 26.514,-10.987l20.833,-20.833c7.083,-7.083 10.986,-16.497 10.986,-26.514c0,-10.016 -3.903,-19.43 -10.986,-26.513c-7.083,-7.084 -16.497,-10.987 -26.514,-10.987Zm-25.081,58.293c-1.082,0.032 -2.11,0.485 -2.865,1.261l-50,50c-0.818,0.786 -1.281,1.872 -1.281,3.006c0,2.286 1.881,4.167 4.167,4.167c1.135,0 2.221,-0.463 3.006,-1.281l50,-50c0.807,-0.784 1.263,-1.863 1.263,-2.988c0,-2.286 -1.881,-4.167 -4.167,-4.167c-0.041,0 -0.082,0.001 -0.123,0.002Zm-54.085,20.874c-10.017,0 -19.431,3.903 -26.514,10.986l-20.833,20.834c-6.517,6.512 -10.343,15 -10.913,24.113c-0.05,0.795 -0.074,1.596 -0.074,2.4c0,10.017 3.903,19.431 10.987,26.514c7.083,7.083 16.497,10.986 26.513,10.986c10.017,0 19.431,-3.903 26.514,-10.986l20.833,-20.833c7.084,-7.084 10.987,-16.497 10.987,-26.514c0,-5.7 -1.307,-11.195 -3.703,-16.187l-6.356,6.364c1.113,3.117 1.725,6.419 1.725,9.823c0,7.792 -3.036,15.109 -8.545,20.622l-20.833,20.833c-5.512,5.508 -12.83,8.545 -20.622,8.545c-7.791,0 -15.109,-3.037 -20.621,-8.545c-5.513,-5.508 -8.545,-12.83 -8.545,-20.622c0,-7.791 3.036,-15.109 8.545,-20.621l20.833,-20.834c5.512,-5.508 12.83,-8.545 20.622,-8.545c3.404,0 6.706,0.613 9.822,1.726l6.364,-6.356c-4.991,-2.396 -10.486,-3.703 -16.186,-3.703Z" style="fill:#fff;fill-rule:nonzero;"/><defs><linearGradient id="_Linear1" x1="0" y1="0" x2="1" y2="0" gradientUnits="userSpaceOnUse" gradientTransform="matrix(-859.908,1230.43,-1230.43,-859.908,999.96,-446.412)"><stop offset="0" style="stop-color:#adb6f2;stop-opacity:1"/><stop offset="1" style="stop-color:#962b56;stop-opacity:1"/></linearGradient></defs></svg>